<svg xmlns="http://www.w3.org/2000/svg" width="360.9178" height="360.7982" viewBox="0 0 360.9178 360.7982"><defs><style>.cls-1{fill:#284da0;}.cls-2{fill:#3f3d56;}</style></defs><g id="Layer_2" data-name="Layer 2"><g id="b64b805f-e6f6-44d8-97ce-775b67d7efb4"><path class="cls-1" d="M360.9178,180.3916v1.08q-.0369,4.0679-.2331,8.099A180.3868,180.3868,0,0,1,.5121,191.9265Q.144,186.202.144,180.3916A179.493,179.493,0,0,1,33.3131,76.123q2.5953-3.6814,5.3993-7.2277c1.2884-1.6444,2.6138-3.2519,3.9514-4.8472A180.4208,180.4208,0,0,1,294.0519,40.1929c2.172,1.7548,4.3072,3.5709,6.3933,5.4239q2.5034,2.2272,4.9208,4.5526a179.8989,179.8989,0,0,1,54.926,115.055Q360.918,172.7343,360.9178,180.3916Z"/><path class="cls-2" d="M38.5687,68.8953a1.0015,1.0015,0,0,1,.2454.1473c.9694.7976-.2454,2.3315-.0981,3.5955.1718,1.62,2.3315,1.9756,3.9636,2.1352,1.6321.1718,3.6936,1.4848,2.92,2.9328-4.0985,1.4112-8.2463.0245-12.4307-1.583A179.4927,179.4927,0,0,0,0,180.3916q0,5.8167.3681,11.535a4.6666,4.6666,0,0,0,1.1167.6013c1.2271.4663,2.6506.38,3.78,1.043.8958.5277,1.497,1.46,2.3929,1.9511,2.5647,1.399,6.1233-1.2884,8.5162.38a22.0429,22.0429,0,0,1,1.7548,1.7916c2.2088,1.9143,5.8411.6259,8.3934,2.0616,1.6444.92,2.4911,2.761,3.3746,4.43,2.1966,4.1722,5.7552,8.2708,10.4551,8.6021a28.1575,28.1575,0,0,1,4.4422.1473c1.448.3313,2.8715,1.5952,2.6383,3.0555-.405,2.5156.8344,5.2644.5031,7.78-.6013,4.6017-7.1173,6.6142-7.6695,11.2159a27.7032,27.7032,0,0,1-.1718,3.031c-.2945,1.2026-1.2026,2.1843-1.5216,3.3869-.6136,2.27,1.0185,4.54,2.7979,6.062,1.7915,1.5339,3.9268,2.8592,4.9085,4.9944,1.0307,2.27.5276,4.9085.859,7.375.7362,5.3871,5.3871,9.3752,10.1728,11.9522a10.62,10.62,0,0,1,3.9759,2.896c1.2271,1.7793,1.1044,4.1231,1.5217,6.246,1.0062,5.1907,5.3748,9.4733,5.4975,14.7622.0859,3.7673-2,7.1787-3.2519,10.7251a24.7519,24.7519,0,0,0-1.1167,11.584,181.2413,181.2413,0,0,0,22.2477,16.1366,6.484,6.484,0,0,0,.92-2.0616,4.0774,4.0774,0,0,0-1.902-4.2213,10.087,10.087,0,0,0,3.5219-2.2579,3.4547,3.4547,0,0,0,.6381-3.9022c2.16.27,4.7244.4049,6.1479-1.2517,1.1412-1.3253,1.0675-3.3132.6135-4.9944-.4539-1.6934-1.2148-3.3255-1.2271-5.08a91.3805,91.3805,0,0,0,14.9955-.5031,9.735,9.735,0,0,0-4.5649-5.7184c2.2579-.38,4.3072-3.08,5.0189-5.252a13.3772,13.3772,0,0,0,.0981-6.7861,3.6114,3.6114,0,0,1-.0736-1.767,3.4773,3.4773,0,0,1,1.7917-1.73q5.5956-3.2211,11.1913-6.43a6.7441,6.7441,0,0,0,1.7916-1.313c1.1658-1.3866.9941-3.46.3927-5.1661s-1.5584-3.3133-1.7916-5.1049c-.6872-5.3625,5.0557-9.2156,6.9946-14.2714a21.431,21.431,0,0,0,1.0553-6.2461c.16-2.2824.1718-4.9207-1.5707-6.381-1.6812-1.4112-4.2949-1.0921-6.05-2.4051-1.6075-1.2026-2.16-3.5219-3.9144-4.4913-1.5953-.8835-3.5832-.3191-5.3626-.7363-3.1169-.724-5.08-4.3194-8.2708-4.6508-1.7916-.1963-3.8286.6872-5.3011-.3558-1.3008-.9326-1.35-2.7856-1.5953-4.3563a12.1691,12.1691,0,0,0-9.817-9.8415c-1.853-.2946-3.8655-.1841-5.4485-1.2026-1.5952-1.0308-2.3192-2.9574-3.5832-4.3931-2.0124-2.2947-5.203-3.1169-8.1848-3.8163q-6.0744-1.4174-12.1363-2.847c-2.1474-.5154-4.9207-.7853-6.0865,1.1044a8.3019,8.3019,0,0,0-.7117,2.27,7.04,7.04,0,0,1-6.602,4.9576,7.8008,7.8008,0,0,0-4.5894-3.5587,28.96,28.96,0,0,1-3.73-.8835,5.2265,5.2265,0,0,1-2.394-6.993q.0645-.1315.1362-.2593a6.5115,6.5115,0,0,0-1.1167-7.8168c-2.0616-1.853-5.0435-2.307-7.8168-2.1229-.724-1.583.4908-3.3623,1.7916-4.5158,1.313-1.1412,2.896-2.27,3.1782-3.9881.454-2.7-2.9942-4.749-5.6079-3.9514-2.6138.81-4.2827,3.35-5.3871,5.8534a17.6556,17.6556,0,0,1-2.172,4.16,4.2639,4.2639,0,0,1-4.1231,1.6934c-2.16-.5522-2.9819-3.1169-3.46-5.2766a34.4037,34.4037,0,0,1-1.1535-8.8476,11.5494,11.5494,0,0,1,3.3377-8.05c3.571-3.2887,9.0685-2.97,13.891-2.442a3.5382,3.5382,0,0,1,.3682-4.663,5.3015,5.3015,0,0,1,4.81-1.178,6.6,6.6,0,0,1,3.7182,2.221c1.3744,1.6689,1.767,3.9391,2.7979,5.8289,1.043,1.902,3.3745,3.5218,5.2766,2.5033,1.6566-.8835,1.9143-3.166,1.5093-4.9944-.4172-1.8161-1.2885-3.5955-1.1412-5.4607.2822-3.5464,3.9759-5.6938,7.2277-7.1541s6.97-3.4359,7.4855-6.97a6.5111,6.5111,0,0,1,.3927-2.0125,3.9341,3.9341,0,0,1,1.46-1.3744c9.4857-6.27,19.1432-12.627,29.9909-16.0507.5644-.1841.6258.0123,1.2025-.1227.81-.4663.27-1.7548-.5031-2.27s-1.8039-.92-2-1.8284c-.1351-.6627.2576-1.3253.3558-2a2.4974,2.4974,0,0,0-3.2764-2.5279c-.8713-1.1535.8468-2.491,2.2456-2.8837a61.3332,61.3332,0,0,1,12.8234-2.0861,2.2836,2.2836,0,0,1,1.46.2454,1.7352,1.7352,0,0,1,.11,2.3806,13.44,13.44,0,0,1-1.9511,1.7793,5.36,5.36,0,0,0-1.3989,5.3871c2.27,1.1535,4.7244,2.3438,7.24,1.9389,2.5033-.405,4.7244-3.2274,3.5464-5.4731-1.0921-2.0983-4.3931-2.5769-4.9576-4.8716-.6627-2.6874,3.1414-5.08,2.2825-7.7064-.3682-1.1534-1.5216-1.8406-2.4052-2.6628a7.26,7.26,0,0,1-1.583-8.0254,9.1438,9.1438,0,0,1-8.0009-2.5033c-1.9143-1.9266-3.4359-4.9821-6.16-4.884-2.491.0737-4.6386,2.9819-6.97,2.0984-.5768-.2209-1.178-.6626-1.73-.4049a1.43,1.43,0,0,0-.65,1.0676c-.5889,2.8346.4295,6.062-1.1167,8.5162-1.6811,2.6629-5.5711,3.031-7.6081,5.4362-1.1044,1.3007-1.5339,3.0555-2.5524,4.43s-3.1661,2.2579-4.3931,1.0553a6.047,6.047,0,0,0-1.6444-7.3628,15.81,15.81,0,0,0-3.6322-1.7669,21.5511,21.5511,0,0,1-4.0618-2.258,4.0247,4.0247,0,0,1-1.4848-1.5952,3.6677,3.6677,0,0,1,.0982-2.5279,10.3315,10.3315,0,0,1,8.2094-6.7982c1.62-.2209,3.51-.1473,4.5894-1.3867.5645-.65.8591-1.6443,1.6935-1.902a2.4693,2.4693,0,0,1,1.5584.1841c2.0248.7117,4.0373,1.4235,6.062,2.1352a4.1539,4.1539,0,0,0,2.16.3559,1.4527,1.4527,0,0,0,1.2639-1.5339c-.1964-1.0063-1.7425-1.4849-1.5953-2.5034a1.5925,1.5925,0,0,1,.5031-.859,21.6838,21.6838,0,0,1,17.192-6.786c.7609,1.264-.4417,2.7488-1.46,3.8164-1.0062,1.08-1.8162,2.9942-.589,3.8163a3.2323,3.2323,0,0,0,1.6075.3682,14.0215,14.0215,0,0,1,4.295,1.3007c2.0983.9081,4.16,1.9143,6.1724,2.9942a7.7811,7.7811,0,0,1,.1473-3.9759,2.7,2.7,0,0,1,3.1905-1.73c1.2025.4663,1.8161,2.0615,3.1046,2.2088,1.7057.1963,2.3806-2.3315,1.6688-3.9022s-2.1351-2.8715-2.2456-4.6018c-.0858-1.1534.3559-2.5892-.5644-3.2886a2.4415,2.4415,0,0,0-1.0922-.3927q-11.5595-2.1168-23.1312-4.2459c-1.3744-.2577-3.35-.0613-3.4114,1.3253-.0368.7854.6627,1.5585.3559,2.27-.3313.7608-1.4112.7-2.1966.9694a2.9825,2.9825,0,0,0-1.718,3.1537,8.5956,8.5956,0,0,0,1.448,3.5464c-1.5093-.6258-3.7795-.7362-5.2889-1.3744A20.3584,20.3584,0,0,0,75.53,73.2762a1.7977,1.7977,0,0,0-2.3438-1.448c-1.9879.3068-3.9759.6013-5.9638.9081a2.3068,2.3068,0,0,0-1.3621.5276c-.7731.8222-.0123,2.1352-.0368,3.2642a3.0591,3.0591,0,0,1-2.3684,2.6383,8.9278,8.9278,0,0,1-3.7795-.0491c-2.7856-.43-5.5589-.859-8.3444-1.2885a13.6692,13.6692,0,0,0,6.3074-4.2213c1.1044-1.3007,1.6934-3.73.0981-4.344a3.8074,3.8074,0,0,0-1.448-.11c-3.7795.0245-6.7614-3.1292-10.2955-4.4667a10.1179,10.1179,0,0,0-3.4728-.6381Z"/><path class="cls-2" d="M360.541,189.5705a4.4309,4.4309,0,0,1-3.755,1.7794c-3.8409-.3314-5.4607-5.8657-9.2648-6.4915a1.483,1.483,0,0,0-1.0062.0981c-.5645.3068-.6627,1.0676-.7,1.7057-.1595,3.166-.2945,6.4547.9449,9.3753,1.8039,4.27,6.4792,7.8535,5.4975,12.3816-5.2766-2.442-8.0254-8.369-9.2648-14.05-1.2516-5.6816-1.448-11.6454-3.6814-17.02-1.7057,2.172-5.2643.38-6.81-1.902-1.4725-2.16-2.3806-4.6631-3.8041-6.86-1.4235-2.1842-3.6077-4.1476-6.2092-4.27-2.7365-.1228-5.1171,1.7547-7.2032,3.5341a16.67,16.67,0,0,0-4.479,4.9821c-1.46,2.9451-1.08,6.4056-1.1535,9.682-.0736,3.5341-.8222,7.2768-3.24,9.8783-2.4175,2.5893-6.8719,3.4973-9.5348,1.1535a10.7572,10.7572,0,0,1-2.6628-4.798A233.4857,233.4857,0,0,1,287,163.0034c-.4417,1.988-2.1965,4.5526-3.8654,3.3869a3.4477,3.4477,0,0,1-.8835-1.1535c-3.1169-5.2644-8.8721-8.43-14.701-10.3324-5.8165-1.89-11.94-2.7733-17.6951-4.8594a45.2448,45.2448,0,0,1-9.1911-4.5771,7.2372,7.2372,0,0,0-.4418,7.3872,5.9176,5.9176,0,0,0,6.651,2.7856c1.2762-.4172,2.3561-1.3008,3.62-1.7425,1.2639-.4295,2.97-.2209,3.5218,1.0062.54,1.1658-.27,2.577.135,3.8041.6014,1.853,3.4114,2,4.3932,3.6936a3.4193,3.4193,0,0,1-.92,3.9514,16.5386,16.5386,0,0,1-3.7059,2.2824c-4.1231,2.2947-7.056,6.2092-10.6637,9.2525-3.6077,3.0555-8.7,5.2766-12.9953,3.3255,1.0185-5.1907-5.1539-8.9948-6.2951-14.161-.38-1.7057-.1841-3.51-.7117-5.1662-.7731-2.4052-2.9083-4.0495-4.6509-5.8656a23.0564,23.0564,0,0,1-6.32-16.75c.0982-2.1351.4909-4.3072,0-6.3932-.4785-2.0739-2.2088-4.0864-4.344-4-4.8717.2209-11.0195.589-13.572-3.5709-.92-1.4848-1.313-3.6568.0123-4.798.9326-.7976,2.307-.724,3.5218-.6013,3.6691.3559,7.326.724,10.995,1.08,2.5647.2454,5.338.454,7.5468-.8835s3.1661-4.9085,1.1167-6.4915c-1.4848-1.1535-4.16-1.0922-4.6016-2.9206-.3559-1.5339,1.3375-3.2641.4172-4.5526-.65-.908-2.1229-.6626-3.0187.0246a19.731,19.731,0,0,1-2.54,2.221c-1.7548.9081-3.8409.0368-5.7307-.5522s-4.4176-.6381-5.3256,1.1167c-1.0308,1.9511.8958,4.5281-.1105,6.4915-1.35,2.5892-5.89,1.1167-7.78,3.35-2.16,2.5525,1.4726,6.381.7486,9.6452a6.0127,6.0127,0,0,1-5.927-.3313,5.7377,5.7377,0,0,1-2.4788-5.35c.1718-1.4726.9449-2.982.4295-4.3686a5.1,5.1,0,0,0-2.5892-2.3684q-5.338-2.9634-10.6761-5.9024c-.994,1.8407.2577,4.1108,1.8285,5.4975,1.5584,1.3744,3.5218,2.4174,4.5526,4.2336a5.5644,5.5644,0,0,1-2.0861,7.3382,1.2946,1.2946,0,0,1-1.0676.184,1.4793,1.4793,0,0,1-.6872-.92c-1.8775-4.8226-4.7122-9.5716-9.228-12.0872-4.5281-2.5278-11.02-2-13.9892,2.2334-.7,1.0062-1.178,2.16-1.7917,3.2273-3.2518,5.657-10.2464,8.3322-16.7747,8.16a3.2335,3.2335,0,0,1-1.8284-.4295c-1.0553-.724-1.0062-2.27-.8467-3.5464.2332-1.8039.454-3.5955.6872-5.3993a4.3246,4.3246,0,0,1,1.19-2.9574c1.2149-.9571,2.9574-.3559,4.5036-.38a5.673,5.673,0,0,0,5.1662-3.9881,6.4107,6.4107,0,0,0-1.7917-6.381c-.6994-.6627-1.6443-1.4971-1.2761-2.3929a1.9879,1.9879,0,0,1,1.3866-.9326c2.761-.7977,5.6939-1.0063,8.4058-1.9634,2.7242-.9449,5.3625-2.8838,6.0128-5.6939.1964-.859.2823-1.902,1.0554-2.3315a3.4191,3.4191,0,0,1,1.2271-.2454,5.9724,5.9724,0,0,0,5.1171-6.2215c1.3008-.9081,3.1292-.2332,4.3932.7362,1.2516.97,2.3683,2.2457,3.9022,2.6629,2.8592.7853,5.62-1.7548,8.59-1.7671,1.2517,0,2.54.4418,3.706.0123,1.19-.43,1.9019-1.6075,2.81-2.4788.92-.8835,2.5156-1.4112,3.3623-.4663-.2454-1.7793-.4786-3.5464-.724-5.3134a10.4456,10.4456,0,0,0,8.504-1.5462c-3.0923-1.0431-6.1724-2.0861-9.2647-3.1292a1.9992,1.9992,0,0,1-.8713-.4663c-.6749-.724,0-1.8529.54-2.6751,1.313-1.9757,1.5339-5.2275-.6259-6.2092-1.4725-.675-3.1536.135-4.5648.92-2.2579,1.2517-4.5158,2.5156-6.7737,3.7673-.2086,1.2884,1.3621,2.0247,2.3315,2.8837a3.91,3.91,0,0,1-2.5524,6.8351,4.8986,4.8986,0,0,1,.8713,4.1354c-1.5094.11-3.031.2209-4.5526.3313a1.955,1.955,0,0,1-1.4726-.2945c-.4908-.43-.4172-1.19-.54-1.8284A3.95,3.95,0,0,0,161.87,78.32a11.5223,11.5223,0,0,0-4.6508.43,2.8336,2.8336,0,0,1-2.0124-.0491,2.0077,2.0077,0,0,1-.7854-1.0062,5.1309,5.1309,0,0,1,1.0308-4.933A28.24,28.24,0,0,1,159.33,69.19a22.6057,22.6057,0,0,0,6.7369-10.43c2.5033-1.0553,5.0925-2.4788,7.6081-3.5341a30.3913,30.3913,0,0,1,6.32-2.1229,29.8565,29.8565,0,0,1,6.197-.2945c2.8224.049,5.657.0981,8.48.16a20.4056,20.4056,0,0,1,7.424,1.0676c2.3193.9571,4.3686,3.031,4.5281,5.5343a1.699,1.699,0,0,1-.5522,1.5584,1.9882,1.9882,0,0,1-1.0675.2455c-2.3439.0736-3.3378.6626-5.6816.7485,1.4848,1.583,3.1537,3.2519,5.3134,3.5341,3.8041.4908,6.5406-3.4482,8.2953-6.8719a3.3488,3.3488,0,0,0,3.4974,3.1046,7.0539,7.0539,0,0,0,2.6383-1.0307A51.8976,51.8976,0,0,1,243.67,54.5014a2.6494,2.6494,0,0,1,2.0248-2.9206c1.7547-.3436,3.3255,1.1658,4.1721,2.7365.8345,1.5707,1.3622,3.3869,2.712,4.5649,1.3375,1.178,3.9268,1.1167,4.4544-.5768.5154-1.632-1.19-3.031-2.6015-4-1.4234-.9571-2.9082-2.7365-1.9511-4.16,7.2155-1.6075,14.4923-3.2027,21.8919-3.5218a9.3164,9.3164,0,0,0,3.6814-.6381,2.8616,2.8616,0,0,0,1.718-3.031,8.3668,8.3668,0,0,1-8.7126-3.2887c7.5959-.6258,15.5477-1.178,22.849.5276l6.3933,5.4239c-1.2148,1.264-2.8347,2.4543-1.9511,3.7182a2.7205,2.7205,0,0,0,2.2457.7731c1.5461.0245,3.0923.0613,4.6262.0613a179.9,179.9,0,0,1,54.926,115.0551c-2.577-.0982-4.9453,3.1659-4.614,6.0129.3927,3.301,2.7733,5.9515,4.479,8.7984a13.4142,13.4142,0,0,1,.7608,1.4358Z"/></g></g></svg>