<svg width="282" height="129" viewBox="0 0 282 129" fill="none" xmlns="http://www.w3.org/2000/svg">
<path d="M28 21L28 11L41 12.7868L41 19.2132L28 21Z" fill="#535461"/>
<g opacity="0.1">
<path opacity="0.1" d="M35.6081 12.5821L35.6081 20.246L39.1114 19.7325L39.1115 13.0957L35.6081 12.5821Z" fill="black"/>
</g>
<path d="M28 110L28 100L41 101.783L41 108.217L28 110Z" fill="#535461"/>
<g opacity="0.1">
<path opacity="0.1" d="M35.6081 101.08L35.6081 108.748L39.1114 108.235L39.1115 101.594L35.6081 101.08Z" fill="black"/>
</g>
<path d="M28 55L28 45L41 46.7833L41 53.2167L28 55Z" fill="#535461"/>
<g opacity="0.1">
<path opacity="0.1" d="M35.6081 46.136L35.6081 53.8043L39.1114 53.2907L39.1115 46.6496L35.6081 46.136Z" fill="black"/>
</g>
<path d="M28 76L28 66L41 67.7833L41 74.2125L28 76Z" fill="#535461"/>
<g opacity="0.1">
<path opacity="0.1" d="M35.6081 67.1562L35.6081 74.8244L39.1114 74.3066L39.1115 67.6698L35.6081 67.1562Z" fill="black"/>
</g>
<path d="M144 95L144 21L141 21L141 95L144 95Z" fill="#535461"/>
<path d="M191.622 106.725C192.056 106.331 192.403 105.851 192.64 105.314C192.877 104.778 193 104.197 193 103.61C193 103.023 192.877 102.443 192.64 101.906C192.403 101.37 192.056 100.889 191.622 100.495C189.314 98.3259 186.265 96.3636 183.023 94.6521C173.267 89.5751 162.427 86.9495 151.435 87.0007L37 87.0007L37 119.999L151.918 120C162.605 120.041 173.151 117.542 182.69 112.709C187.147 110.417 189.937 108.331 191.622 106.725Z" fill="#E0E0E0"/>
<path d="M191.622 13.2704C192.056 13.6643 192.403 14.1451 192.64 14.6816C192.877 15.2181 193 15.7986 193 16.3855C193 16.9725 192.877 17.5529 192.64 18.0894C192.403 18.626 192.056 19.1067 191.622 19.5006C189.314 21.6741 186.265 23.6321 183.023 25.348C173.266 30.4229 162.427 33.0484 151.435 32.9993L37 32.9993L37 0.000497139L151.918 0.000502162C162.605 -0.040803 173.151 2.45758 182.69 7.29103C187.147 9.57895 189.937 11.6645 191.622 13.2704Z" fill="#E0E0E0"/>
<path d="M149 0L148.963 8L140 8L140 -3.93402e-07L149 0Z" fill="#535461"/>
<path d="M149 25L148.963 33L140 33L140 25L149 25Z" fill="#535461"/>
<path d="M149 87L148.963 95L140 95L140 87L149 87Z" fill="#535461"/>
<path d="M150 111L149.959 120L140 120L140 111L150 111Z" fill="#535461"/>
<g opacity="0.1">
<path opacity="0.1" d="M182.423 25.0724C185.639 23.3751 188.664 21.4384 190.953 19.2885C191.626 18.6815 192.081 17.8704 192.249 16.9796C192.416 16.0888 192.286 15.1677 191.88 14.3577C191.647 14.8243 191.333 15.2457 190.953 15.6024C188.664 17.7479 185.639 19.6889 182.423 21.3818C172.745 26.4039 161.992 29.001 151.088 28.95L37.5796 28.95L37.5796 32.6405L151.084 32.6405C161.989 32.6899 172.743 30.093 182.423 25.0724Z" fill="black"/>
</g>
<g opacity="0.1">
<path opacity="0.1" d="M182.109 97.7334C185.326 99.4263 188.35 101.367 190.639 103.513C191.073 103.914 191.42 104.4 191.658 104.94C192.007 104.143 192.096 103.256 191.914 102.404C191.731 101.553 191.285 100.781 190.639 100.197C188.35 98.0467 185.326 96.1057 182.109 94.4128C172.43 89.393 161.678 86.7961 150.775 86.8447L37.2488 86.8447L37.2488 90.1652L150.766 90.1652C161.673 90.1132 172.429 92.7103 182.109 97.7334Z" fill="black"/>
</g>
<path d="M-2.24544e-07 50.137L-2.1257e-07 49.863C-1.56193e-07 48.5733 0.528597 47.3364 1.46954 46.4244C2.41048 45.5124 3.68669 45 5.01738 45L28 45L28 55L5.01738 55C3.68669 55 2.41048 54.4877 1.46954 53.5757C0.528597 52.6637 -2.80921e-07 51.4267 -2.24544e-07 50.137Z" fill="url(#paint0_linear)"/>
<path d="M-2.46998e-07 70.6507L-2.33827e-07 70.3493C-1.71813e-07 68.9306 0.528597 67.57 1.46954 66.5668C2.41048 65.5636 3.68669 65 5.01738 65L28 65L28 76L5.01738 76C3.68669 76 2.41048 75.4364 1.46954 74.4332C0.528597 73.43 -3.09013e-07 72.0694 -2.46998e-07 70.6507Z" fill="url(#paint1_linear)"/>
<path d="M279.951 64.1253C280.593 63.5811 281.109 62.9018 281.463 62.135C281.817 61.3682 282 60.5326 282 59.6867C282 58.8408 281.817 58.0052 281.463 57.2384C281.109 56.4716 280.593 55.7923 279.951 55.248C276.522 52.1733 271.991 49.3621 267.168 46.9022C252.875 39.6722 236.649 36 220.197 36L38 36L38 83L220.928 83C236.914 83 252.701 79.486 266.672 72.6161C273.301 69.3876 277.423 66.4139 279.951 64.1253Z" fill="#EEEEEE"/>
<path d="M260 67.0752L260 51.9248C260 49.2049 257.691 47 254.842 47L253.158 47C250.309 47 248 49.2049 248 51.9248L248 67.0752C248 69.7951 250.309 72 253.158 72L254.842 72C257.691 72 260 69.7951 260 67.0752Z" fill="#535461"/>
<g opacity="0.1">
<path opacity="0.1" d="M213.836 82.5013L213.836 36.4093L212.047 36.4093L212.047 82.5013L213.836 82.5013Z" fill="black"/>
</g>
<rect x="37" width="80" height="33" fill="#51C546" fill-opacity="0.3"/>
<rect x="37" y="87" width="74" height="33" fill="#8DC546" fill-opacity="0.3"/>
<path d="M74.84 18.12C74.84 20.56 76.84 22.16 79 22.16C81.16 22.16 83.16 20.56 83.16 18.12C83.16 16.56 82.16 15.3 81.04 14.84C82.14 14.3 82.96 13.14 82.96 11.84C82.96 9.54 81.08 8.04 79 8.04C76.92 8.04 75.04 9.54 75.04 11.84C75.04 13.14 75.84 14.3 76.94 14.84C75.86 15.3 74.84 16.56 74.84 18.12ZM76.56 18.12C76.56 16.6 77.8 15.66 79 15.66C80.16 15.66 81.44 16.6 81.44 18.12C81.44 19.48 80.36 20.6 79 20.6C77.6 20.6 76.56 19.48 76.56 18.12ZM76.74 11.84C76.74 10.6 77.74 9.6 79 9.6C80.24 9.6 81.24 10.6 81.24 11.84C81.24 13.1 80.24 14.12 79 14.12C77.74 14.12 76.74 13.1 76.74 11.84ZM92.96 12.02C92.96 9.48 91.08 8.04 89 8.04C86.92 8.04 85.04 9.48 85.04 12.04V18.16C85.04 20.72 86.92 22.16 89 22.16C91.08 22.16 92.96 20.72 92.96 18.18V12.02ZM91.24 12.02V18.18C91.24 19.66 90.24 20.6 89 20.6C87.74 20.6 86.74 19.66 86.74 18.18V12.02C86.74 10.54 87.74 9.6 89 9.6C90.24 9.6 91.24 10.54 91.24 12.02ZM104.22 8.2L96.5 22H98.18L105.88 8.2H104.22ZM108.1 18.16C108.1 16.2 107.04 15.06 105.2 15.06C103.42 15.06 102.34 16.22 102.34 18.16V19.02C102.34 20.96 103.38 22.16 105.2 22.16C107.24 22.16 108.1 20.82 108.1 19.02V18.16ZM105.2 20.96C104.02 20.96 103.62 20.12 103.62 19V18.2C103.62 16.98 104.18 16.28 105.2 16.28C106.28 16.28 106.84 16.96 106.84 18.2V19C106.84 20.1 106.34 20.96 105.2 20.96ZM100.26 11.14C100.26 9.18 99.2 8.04 97.36 8.04C95.58 8.04 94.5 9.2 94.5 11.14V12C94.5 13.94 95.54 15.14 97.36 15.14C99.4 15.14 100.26 13.8 100.26 12V11.14ZM97.36 13.94C96.18 13.94 95.78 13.1 95.78 11.98V11.18C95.78 9.96 96.34 9.26 97.36 9.26C98.44 9.26 99 9.94 99 11.18V11.98C99 13.08 98.5 13.94 97.36 13.94Z" fill="black"/>
<path d="M76.68 101.18V98.76H81.08L76.68 111H78.5L82.88 98.76V97.2H75.12V101.18H76.68ZM86.68 101.18V98.76H91.08L86.68 111H88.5L92.88 98.76V97.2H85.12V101.18H86.68ZM104.22 97.2L96.5 111H98.18L105.88 97.2H104.22ZM108.1 107.16C108.1 105.2 107.04 104.06 105.2 104.06C103.42 104.06 102.34 105.22 102.34 107.16V108.02C102.34 109.96 103.38 111.16 105.2 111.16C107.24 111.16 108.1 109.82 108.1 108.02V107.16ZM105.2 109.96C104.02 109.96 103.62 109.12 103.62 108V107.2C103.62 105.98 104.18 105.28 105.2 105.28C106.28 105.28 106.84 105.96 106.84 107.2V108C106.84 109.1 106.34 109.96 105.2 109.96ZM100.26 100.14C100.26 98.18 99.2 97.04 97.36 97.04C95.58 97.04 94.5 98.2 94.5 100.14V101C94.5 102.94 95.54 104.14 97.36 104.14C99.4 104.14 100.26 102.8 100.26 101V100.14ZM97.36 102.94C96.18 102.94 95.78 102.1 95.78 100.98V100.18C95.78 98.96 96.34 98.26 97.36 98.26C98.44 98.26 99 98.94 99 100.18V100.98C99 102.08 98.5 102.94 97.36 102.94Z" fill="black"/>
<defs>
<linearGradient id="paint0_linear" x1="28" y1="50.0021" x2="-2.18649e-07" y2="50.0021" gradientUnits="userSpaceOnUse">
<stop stop-color="#E0E0E0"/>
<stop offset="0.31" stop-color="#FCCC63"/>
<stop offset="0.77" stop-color="#F55F44"/>
</linearGradient>
<linearGradient id="paint1_linear" x1="28" y1="70.5023" x2="-2.40514e-07" y2="70.5023" gradientUnits="userSpaceOnUse">
<stop stop-color="#E0E0E0"/>
<stop offset="0.31" stop-color="#FCCC63"/>
<stop offset="0.77" stop-color="#F55F44"/>
</linearGradient>
</defs>
</svg>
